<svg width="236" height="236" viewBox="0 0 236 236" fill="none" xmlns="http://www.w3.org/2000/svg">
<defs>
<linearGradient id="dr_paper" x1="60" y1="18" x2="180" y2="214" gradientUnits="userSpaceOnUse"><stop offset="0" stop-color="#ffffff"/><stop offset="0.6" stop-color="#f2f7fa"/><stop offset="1" stop-color="#dde9f1"/></linearGradient>
<linearGradient id="dr_side" x1="0" y1="196" x2="0" y2="224" gradientUnits="userSpaceOnUse"><stop offset="0" stop-color="#93b4c6"/><stop offset="1" stop-color="#6f97ad"/></linearGradient>
<linearGradient id="dr_fold" x1="150" y1="18" x2="194" y2="62" gradientUnits="userSpaceOnUse"><stop offset="0" stop-color="#e6f0f5"/><stop offset="1" stop-color="#aecbdb"/></linearGradient>
<radialGradient id="dr_bloom" cx="70" cy="30" r="170" gradientUnits="userSpaceOnUse"><stop offset="0" stop-color="white" stop-opacity="0.5"/><stop offset="1" stop-color="white" stop-opacity="0"/></radialGradient>
<clipPath id="dr_clip"><path d="M60 18H150L194 62V196Q194 214 176 214H60Q42 214 42 196V36Q42 18 60 18Z"/></clipPath>
<filter id="dr_shadow" x="-20" y="-20" width="276" height="276" filterUnits="userSpaceOnUse" color-interpolation-filters="sRGB"><feDropShadow dx="0" dy="5" stdDeviation="6" flood-color="#1a3342" flood-opacity="0.4"/></filter>
<filter id="dr_fold_shadow" x="-20" y="-20" width="276" height="276" filterUnits="userSpaceOnUse"><feDropShadow dx="0" dy="3" stdDeviation="3" flood-color="#3d7a94" flood-opacity="0.35"/></filter>
<linearGradient id="dr_node" x1="0" y1="72" x2="0" y2="100" gradientUnits="userSpaceOnUse"><stop offset="0" stop-color="#ffb259"/><stop offset="0.55" stop-color="#f58a3a"/><stop offset="1" stop-color="#e0662a"/></linearGradient>
<linearGradient id="dr_node2" x1="0" y1="140" x2="0" y2="188" gradientUnits="userSpaceOnUse"><stop offset="0" stop-color="#7ec6ff"/><stop offset="0.55" stop-color="#4a9be8"/><stop offset="1" stop-color="#2f78cc"/></linearGradient>
<linearGradient id="dr_node3" x1="0" y1="140" x2="0" y2="188" gradientUnits="userSpaceOnUse"><stop offset="0" stop-color="#9ee6b4"/><stop offset="0.55" stop-color="#4cc27a"/><stop offset="1" stop-color="#2a9b5c"/></linearGradient>
</defs>
<g filter="url(#dr_shadow)">
<path d="M60 18H150L194 62V196Q194 214 176 214H60Q42 214 42 196V36Q42 18 60 18Z" fill="url(#dr_side)" transform="translate(0 10)"/>
<path d="M60 18H150L194 62V196Q194 214 176 214H60Q42 214 42 196V36Q42 18 60 18Z" fill="url(#dr_paper)"/>
</g>
<g clip-path="url(#dr_clip)"><rect width="236" height="236" fill="url(#dr_bloom)"/></g>
<path d="M60 18H150L194 62V196Q194 214 176 214H60Q42 214 42 196V36Q42 18 60 18Z" stroke="white" stroke-opacity="0.8" stroke-width="4" clip-path="url(#dr_clip)"/>
<g filter="url(#dr_fold_shadow)"><path d="M150 18V50Q150 62 162 62H194Z" fill="url(#dr_fold)" stroke="url(#dr_fold)" stroke-width="2" stroke-linejoin="round"/></g>
<path d="M117 100V120H78V140M117 120H158V140" stroke="#8aa9bb" stroke-width="5" stroke-linecap="round" stroke-linejoin="round"/>
<rect x="84" y="70" width="66" height="30" rx="11" fill="url(#dr_node)"/>
<rect x="88" y="75" width="40" height="6" rx="3" fill="white" opacity="0.55"/>
<circle cx="78" cy="162" r="23" fill="url(#dr_node2)"/>
<path d="M158 139L181 162L158 185L135 162Z" fill="url(#dr_node3)" stroke="url(#dr_node3)" stroke-width="6" stroke-linejoin="round"/>
<circle cx="72" cy="155" r="6" fill="white" opacity="0.45"/>
</svg>
